<?xml version="1.0" encoding="utf-8"?>
<!-- Generator: Adobe Illustrator 22.0.0, SVG Export Plug-In . SVG Version: 6.00 Build 0)  -->
<svg version="1.1" id="图层_1" xmlns="http://www.w3.org/2000/svg" xmlns:xlink="http://www.w3.org/1999/xlink" x="0px" y="0px"
	 viewBox="0 0 640 512" style="enable-background:new 0 0 640 512;" xml:space="preserve">
<style type="text/css">
	.st0{fill:#FFFFFF;}
</style>
<path class="st0" d="M320,320c0-11.1,3.1-21.4,8.1-30.5c-4.8-0.5-9.5-1.5-14.5-1.5h-16.7c-22.2,10.2-46.9,16-72.9,16
	s-50.6-5.8-72.9-16h-16.7C60.2,288,0,348.2,0,422.4V464c0,26.5,21.5,48,48,48h280.9c-5.5-9.5-8.9-20.3-8.9-32V320z M224,256
	c70.7,0,128-57.3,128-128S294.7,0,224,0S96,57.3,96,128S153.3,256,224,256z M608,288h-32v-48c0-44.2-35.8-80-80-80s-80,35.8-80,80
	v48h-32c-17.7,0-32,14.3-32,32v160c0,17.7,14.3,32,32,32h224c17.7,0,32-14.3,32-32V320C640,302.3,625.7,288,608,288z M528,288h-64
	v-48c0-17.6,14.4-32,32-32c17.6,0,32,14.4,32,32V288z"/>
</svg>
